<svg xmlns="http://www.w3.org/2000/svg" width="19" height="15">
    <defs>
        <filter id="a">
            <feFlood flood-color="#D22856" flood-opacity="1" result="floodOut"/>
            <feComposite in="floodOut" in2="SourceGraphic" operator="atop" result="compOut"/>
            <feBlend in="compOut" in2="SourceGraphic"/>
        </filter>
    </defs>
    <path fill-rule="evenodd" d="M18.353 2.483a7.425 7.425 0 0 1-2.098.564 3.606 3.606 0 0 0 1.606-1.984 7.382 7.382 0 0 1-2.32.871A3.68 3.68 0 0 0 12.874.802c-2.017 0-3.654 1.605-3.654 3.584 0 .281.033.555.095.817a10.436 10.436 0 0 1-7.53-3.745A3.513 3.513 0 0 0 1.29 3.26c0 1.244.645 2.341 1.625 2.984a3.693 3.693 0 0 1-1.655-.449v.045c0 1.737 1.259 3.186 2.931 3.515a3.728 3.728 0 0 1-1.65.062c.465 1.424 1.814 2.46 3.413 2.489a7.426 7.426 0 0 1-4.538 1.535c-.295 0-.586-.017-.871-.05a10.483 10.483 0 0 0 5.6 1.61c6.721 0 10.396-5.462 10.396-10.199 0-.155-.004-.31-.011-.464a7.37 7.37 0 0 0 1.823-1.855z" filter="url(#a)"/>
</svg>
